# xmcd
# Track frame offsets:
# 150
# 16572
# 28022
# 43962
# 61885
# 74190
# 88370
# 101262
# 111875
# 132305
#
# Disc length: 1925 seconds
# Revision: 0
# Processed by: cddbd v1.4PL0 Copyright (c) Steve Scherf et al.
# Submitted via: VisiTrax 2.9.5.180 - For more info visit www.synapsa.com
#
DISCID=8a07830a
DTITLE=Troy Cook Jr. - Introducing
DYEAR=1900
DGENRE=
TTITLE0=What can I do
TTITLE1=Deep in the heart of Dixie
TTITLE2=Let there be a light
TTITLE3=Mama did raise one fool
TTITLE4=Pictures in my mind
TTITLE5=What you see is what you get
TTITLE6=Die with my boots on
TTITLE7=Plain and simple country
TTITLE8=Business as usual
TTITLE9=Too many horses left to ride
EXTD=
EXTT0=
EXTT1=
EXTT2=
EXTT3=
EXTT4=
EXTT5=
EXTT6=
EXTT7=
EXTT8=
EXTT9=
PLAYORDER=
